<svg width="18" height="18" viewBox="0 0 18 18" fill="none" xmlns="http://www.w3.org/2000/svg">
<path d="M15.4197 6.92786C15.5816 6.76936 15.6719 6.5581 15.6719 6.31478C15.6719 5.82408 15.2913 5.44075 14.8019 5.44075C14.5559 5.44075 14.329 5.533 14.1699 5.70445L8.62835 11.376L9.36531 11.376L3.82922 5.70445C3.6653 5.53165 3.43702 5.44075 3.19852 5.44075C2.71052 5.44075 2.3286 5.82408 2.3286 6.31478C2.3286 6.55945 2.41745 6.77072 2.58215 6.92786L8.31817 12.7981C8.50858 12.9995 8.74033 13.1028 8.99645 13.1055C9.25742 13.1055 9.48432 13.0009 9.68095 12.7981L15.4197 6.92786Z" fill="#222222"/>
</svg>
